inDegrees=no
num_controls=7
num_derivatives=13
num_iterations=96
num_multipliers=7
num_parameters=0
num_slacks=7
num_states=26
objective=0.478041
objective_accelerations=0.043737
objective_balance=0.003487
objective_effort=0.039809
objective_height=0.385313
objective_ligament=0.005697
solver_duration=1300.424058
status=Solve_Succeeded
success=true
DataType=double
version=3
OpenSimVersion=4.5
endheader
time	/jointset/ground_pelvis/pelvis_tilt/value	/jointset/ground_pelvis/pelvis_tx/value	/jointset/ground_pelvis/pelvis_ty/value	/jointset/hip_l/hip_flexion_l/value	/jointset/hip_l/hip_adduction_l/value	/jointset/hip_l/hip_rotation_l/value	/jointset/back/lumbar_extension/value	/jointset/patellofemoral_l/patellar_flexion_l/value	/jointset/knee_l/knee_flexion_l/value	/jointset/knee_l/knee_adduction_l/value	/jointset/knee_l/knee_rotation_l/value	/jointset/ankle_l/ankle_angle_l/value	/jointset/subtalar_l/subtalar_angle_l/value	/jointset/ground_pelvis/pelvis_tilt/speed	/jointset/ground_pelvis/pelvis_tx/speed	/jointset/ground_pelvis/pelvis_ty/speed	/jointset/hip_l/hip_flexion_l/speed	/jointset/hip_l/hip_adduction_l/speed	/jointset/hip_l/hip_rotation_l/speed	/jointset/back/lumbar_extension/speed	/jointset/patellofemoral_l/patellar_flexion_l/speed	/jointset/knee_l/knee_flexion_l/speed	/jointset/knee_l/knee_adduction_l/speed	/jointset/knee_l/knee_rotation_l/speed	/jointset/ankle_l/ankle_angle_l/speed	/jointset/subtalar_l/subtalar_angle_l/speed	/forceset/tau_hip_flexion_l	/forceset/tau_hip_adduction_l	/forceset/tau_hip_rotation_l	/forceset/tau_knee_flexion_l	/forceset/tau_ankle_angle_l	/forceset/tau_subtalar_angle_l	/forceset/tau_lumbar_extension	lambda_cid13_p0	lambda_cid13_p1	lambda_cid13_p2	lambda_cid13_p3	lambda_cid13_p4	lambda_cid13_p5	lambda_cid14_p0	/jointset/ground_pelvis/pelvis_tilt/accel	/jointset/ground_pelvis/pelvis_tx/accel	/jointset/ground_pelvis/pelvis_ty/accel	/jointset/hip_l/hip_flexion_l/accel	/jointset/hip_l/hip_adduction_l/accel	/jointset/hip_l/hip_rotation_l/accel	/jointset/back/lumbar_extension/accel	/jointset/patellofemoral_l/patellar_flexion_l/accel	/jointset/knee_l/knee_flexion_l/accel	/jointset/knee_l/knee_adduction_l/accel	/jointset/knee_l/knee_rotation_l/accel	/jointset/ankle_l/ankle_angle_l/accel	/jointset/subtalar_l/subtalar_angle_l/accel	gamma_cid13_p0	gamma_cid13_p1	gamma_cid13_p2	gamma_cid13_p3	gamma_cid13_p4	gamma_cid13_p5	gamma_cid14_p0
1	-0.09279119374967014	-0.05225382908058664	0.6889700169432348	1.289432670036194	-0.3304241341635111	0.07623110572035496	-0.959931083720132	1.391004114329874	1.391004114329881	-0.07508085940346231	-0.1745326817614412	0.2915108045188416	0.06711124120356322	0.1067359057238912	0.02648334518942503	0.07031657702399118	-0.3045289127612018	-0.007590723206286767	-0.06721915882178615	-0.0003264468371286048	-0.1635824374043119	-0.1635824374043119	-0.001618896581112556	-8.888129766682999e-06	0.02507404894849828	0.002127248711352241	-0.3612112921790533	0.0440229589075694	0.001168038246398589	-0.3786591413405507	0.03679870558096408	0.00785365177039302	0.4196152568089185	-40.13097176663008	6.45544717786474	-4.727040689938059	14.30119366564831	-797.6810874176743	-48.9082691205962	-0.04156668780441521	0.7788769433568045	-0.0197310060207514	1.505957727740744	-4.818635047088607	-0.1201319309142801	-1.697440382664631	0.04697960123931786	-4.963561870968944	-4.963561870969005	-0.3047468330997338	-0.01542434305182959	-1.278501789360343	-0.7043400047430444	-8.68153876974152e-09	2.381704772017198e-08	7.106811641140055e-08	7.435431156503988e-09	-2.429525705152514e-08	1.25393445305427e-07	-1.709285417295831e-08
1.01	-0.09168538256208873	-0.0519899133037614	0.6897482361497009	1.286147479289311	-0.3305053241099853	0.07547314811238429	-0.9599310885968813	1.389120552991733	1.389120552991751	-0.075110310185623	-0.1745326879171454	0.2916977485256753	0.0670983467501954	0.1144141377623188	0.02630742727196335	0.08531314877764605	-0.3524725328593156	-0.008638065408552347	-0.08436290158913655	0.0003694192171136021	-0.2131172617394757	-0.2131172617394746	-0.004269521955177129	5.700604438076881e-06	0.01230385402957511	-0.004698559284421892	-0.3604820174523905	0.04433649652615083	0.001083989513169647	-0.3783456533081244	0.03667937242796655	0.007909153828593685	0.4193388147762415	-40.13633133302828	6.428909682648827	-4.718958881807267	14.14949690662215	-797.3319166240691	-48.86170574633118	-0.04160012465136569	0.7604653613472994	-0.01537641295887849	1.494383317336644	-4.776722665405084	-0.09566460093204376	-1.721439708343541	0.08751131474439255	-4.946552775612192	-4.946552775611996	-0.244970122288675	0.009631454409640984	-1.2779128703605	-0.6705789266569734	-1.580975251992961e-08	1.81092647032788e-08	1.012822064281191e-07	1.594997649304293e-08	-3.122055296015878e-08	1.444492953914879e-07	-2.327017171216564e-08
1.02	-0.09050315524867041	-0.05172752755178078	0.6906759963573355	1.282383952906601	-0.3305967133256917	0.07454403337982533	-0.9599228125081672	1.386742021398076	1.386742021398104	-0.07516621716806994	-0.174532601990959	0.2917566636778793	0.06701741867093733	0.1220191308912094	0.02617734022049954	0.1002247772576549	-0.4001960399267221	-0.009630577052791887	-0.1014505837394189	0.001330133560464199	-0.2625764885075239	-0.2625764885075213	-0.006910136638396071	9.528248763275286e-06	-0.000531721977435932	-0.01147947646669107	-0.359752742725723	0.04465003414473269	0.0009999407799493815	-0.3780321652756975	0.03656003927496838	0.007964655886794516	0.4190623727435686	-40.15299334786752	6.40457191440309	-4.711480094399372	14.05586689004127	-797.1337767256221	-48.79345759250702	-0.04163344978771524	0.7642291614494277	-0.01056483282117803	1.488969073011534	-4.774612440947139	-0.1091658193090728	-1.686228259251023	0.09994925906095334	-4.948442357545834	-4.948442357545819	-0.3027446949306077	-0.01757656102774231	-1.291578006977915	-0.6953618420420533	-2.278553990938275e-08	9.616488894716956e-09	1.291081923245541e-07	2.30362017371372e-08	-3.828262667664324e-08	1.59999216146642e-07	-2.931770569308844e-08
1.03	-0.08924566465822077	-0.05146596683758672	0.6917524290323158	1.278144457756819	-0.3306977252861034	0.0734444079285196	-0.9599016815116634	1.383869327246628	1.383869327246646	-0.07524850874280151	-0.1745324700861519	0.2916872233543489	0.0668691063169302	0.1294254330972348	0.02616739754589743	0.1150459947047209	-0.4476516659196922	-0.01056226281772191	-0.1184627949887886	0.003132182979153326	-0.3119456413139449	-0.3119456413139422	-0.009547106896675808	1.518674820409282e-05	-0.01333487074870401	-0.01815888575612719	-0.3605240170922619	0.04519888469331948	0.0008714035202651481	-0.3771667277464831	0.03623124800186632	0.008080766940681015	0.4205595651558849	-40.26830461011367	6.359971029657338	-4.687962241702302	13.55481048612898	-797.8258412814855	-48.65729833946857	-0.04167298732733047	0.7207954288479074	0.008686318789458379	1.476324513475442	-4.723342667512254	-0.08375273901894892	-1.706988790896178	0.255750368999531	-4.928639562533333	-4.928639562533312	-0.2440296845184335	0.009423308147604177	-1.271463902251524	-0.6506326724532788	-2.975977192780798e-08	1.095294792362564e-09	1.569098098115984e-07	3.010785228641059e-08	-4.534609608504456e-08	1.755133621127051e-07	-3.536391535198794e-08
1.04	-0.08791571810997688	-0.05120352648942485	0.6929765991683509	1.2734319453493	-0.3308077706609508	0.07217500611809669	-0.9598554465038229	1.380503444003046	1.380503444003055	-0.07535714131876414	-0.1745323243458063	0.2914903954250957	0.06665471943001694	0.1365103224500133	0.02635326701406114	0.1297722694686422	-0.494799491474274	-0.01143725994001122	-0.1354058555628079	0.006350935826908251	-0.3612143069340898	-0.3612143069340867	-0.01217833688462676	1.229535634927035e-05	-0.02600924312198294	-0.02469438304791888	-0.3612952914587952	0.04574773524190661	0.0007428662605894897	-0.3763012902172679	0.03590245672876339	0.008196877994567453	0.422056757568206	-40.39515282634149	6.317629833410222	-4.665078555684896	13.11025787708484	-798.6731642315032	-48.5001251021128	-0.04171131964327623	0.6999465908000606	0.0285975957319882	1.469980536382609	-4.713052353269463	-0.09782809078093127	-1.672398124180948	0.3832899448740998	-4.928344920290604	-4.928344920290543	-0.3015966408648506	-0.01928653928687349	-1.265822727380086	-0.6665794425131707	-3.379856735055071e-08	-9.720565691785604e-09	1.822697412307805e-07	3.116364701624979e-08	-5.075133496818424e-08	1.81387020395943e-07	-4.045745836784805e-08
1.05	-0.08651632336843612	-0.05093827832503169	0.6943474906306593	1.268249489193403	-0.3309262537030112	0.07073666145105824	-0.9597705522668523	1.376645501988291	1.376645501988282	-0.0754921283151798	-0.1745322444638999	0.2911673973074295	0.06637571730231219	0.1433338008220552	0.0267259756179459	0.1443833445025614	-0.5416388328256162	-0.01224542988602181	-0.1522441522764071	0.01080544926905643	-0.4103449128710946	-0.4103449128710947	-0.01481649742728772	4.012758860682431e-06	-0.03857563870803007	-0.0310777276641668	-0.3612998438450654	0.04631273620132339	0.0005814350322778812	-0.3752825621655215	0.0359081442739789	0.008312060479781877	0.4227863048980008	-40.36818411269744	6.245767114865165	-4.634069923132615	12.61039092592623	-798.7720355141515	-48.3459866037719	-0.04176386404815954	0.6683218460463414	0.0460553707785634	1.45325793829926	-4.661443478181836	-0.0702458314790337	-1.686743415895718	0.5031626991417477	-4.901031803123322	-4.901031803123836	-0.2445638935412802	0.008496840170582659	-1.24983889403854	-0.6199857558518904	-3.77456303796784e-08	-2.060813450036482e-08	2.075533699603419e-07	3.203144625173171e-08	-5.610475414740951e-08	1.869594134390926e-07	-4.552123055111319e-08
1.06	-0.0850497391660467	-0.05066841349898731	0.6958638102335875	1.262600225933571	-0.3310524053215249	0.06913049422269398	-0.959635786764408	1.372297131239622	1.372297131239595	-0.07565342454353725	-0.1745322282159371	0.2907191770499385	0.06603372697151066	0.1499482146197014	0.02727659934430296	0.1588578975925915	-0.5881609122615677	-0.01297097523074866	-0.1689703678278589	0.01632518892146787	-0.4593000537168158	-0.4593000537168194	-0.01744018327293128	-4.31432610607903e-07	-0.05105367108693783	-0.03729202366726633	-0.3613043962313287	0.04687773716073992	0.0004200038039720512	-0.3742638341137743	0.03591383181919316	0.008427242964995323	0.4235158522278019	-40.35285745613949	6.176166708306449	-4.603677857824873	12.16478533724965	-799.0283176015033	-48.17271559843632	-0.04181445152984611	0.6581336759209218	0.0641806202264508	1.442676147604796	-4.64959997019135	-0.08130317052418468	-1.649981891751465	0.5963351869267487	-4.893251902033887	-4.893251902033889	-0.2987017014613697	-0.01851885808341422	-1.248150085952208	-0.6327697198834933	-4.204153205279336e-08	-3.350414144175287e-08	2.274636750783216e-07	3.315032190886151e-08	-6.129104525397414e-08	1.88279779364433e-07	-4.994255216702345e-08
1.07	-0.08351805615783715	-0.05039214056316362	0.6975241274880546	1.256487454151213	-0.331185382465512	0.06735775398344873	-0.9594405414638069	1.367460174274778	1.367460174274775	-0.07584097203269569	-0.1745322431925217	0.2901465837240169	0.06563045626106857	0.156352241481027	0.0280088986418657	0.1731762390342111	-0.6343269137320521	-0.01360764900564201	-0.185555574486558	0.02289892261716602	-0.5080536841914256	-0.5080536841914268	-0.0200647854916243	-2.475405166448175e-06	-0.06345328160148188	-0.04333009728634531	-0.3609749784160463	0.04749169046133098	0.0002260025851599283	-0.3730066879655715	0.03609282127727916	0.008565322203391906	0.4239548119303329	-40.25101421140776	6.075635609169502	-4.561685780674657	11.62762821480612	-798.8534861221891	-48.00299604576922	-0.04187701122484459	0.6261119368914811	0.08239808025742859	1.422002635539388	-4.59012594057125	-0.05235550265701029	-1.65951911427206	0.714150173648362	-4.860759433110133	-4.860759433109791	-0.2436885724315639	0.009019783353365361	-1.234113141610481	-0.5845444703666091	-4.635598897292891e-08	-4.650698019871588e-08	2.470881651105788e-07	3.428255269480237e-08	-6.646844656943982e-08	1.893739736345707e-07	-5.432970088041483e-08
1.08	-0.08192341793188361	-0.05010761593521706	0.6993267460555579	1.249915017213132	-0.3313242275515851	0.0654198158653474	-0.9591743072836971	1.362136812842601	1.362136812842623	-0.07605463536211285	-0.1745322652187926	0.2894503449714689	0.06516776115694638	0.1625392581684771	0.02892693776887619	0.1873181601997864	-0.6800939434063078	-0.01414456364793918	-0.2020099435989741	0.03052296482314519	-0.5565809471834602	-0.5565809471834591	-0.0226633513246493	-1.841369920967249e-06	-0.07578275641222504	-0.04917690240328464	-0.3606455606007642	0.04810564376192107	3.200136635307605e-05	-0.3717495418173685	0.03627181073536495	0.008703401441787027	0.4243937716328638	-40.16097729947535	5.977399269300557	-4.520319655885329	11.1424529775699	-798.8388781403584	-47.81636103514138	-0.04193654743926307	0.6147316411458329	0.1013285861159999	1.407392092395956	-4.56980561094564	-0.06135134400494856	-1.623814382494843	0.8063968889829528	-4.847978405518881	-4.847978405518859	-0.2934944243277655	-0.01798325652314855	-1.234122945192027	-0.5945160194555605	-5.012593033258354e-08	-6.068840515626994e-08	2.602474342173986e-07	3.452566487131379e-08	-7.07123899820354e-08	1.852770552767957e-07	-5.770136490070928e-08
